 <svg version="1.0" xmlns="http://www.w3.org/2000/svg" width="700.000000pt" height="205.000000pt" viewBox="0 0 700.000000 205.000000" preserveAspectRatio="xMidYMid meet">
<metadata>
Created by potrace 1.12, written by Peter Selinger 2001-2015
</metadata>
<g transform="translate(0.000000,205.000000) scale(0.100000,-0.100000)" fill="#000000" stroke="none">
<path d="M340 1973 c-153 -81 -156 -285 -6 -378 100 -61 224 -28 290 78 87
140 -5 313 -172 325 -48 3 -66 -1 -112 -25z"></path>
<path d="M186 1487 c-84 -30 -91 -34 -98 -65 -5 -18 -8 -149 -6 -291 l3 -258
34 -54 35 -54 5 -275 c6 -271 7 -277 32 -325 18 -35 39 -59 74 -80 45 -28 56
-30 160 -33 99 -3 119 -1 165 19 64 28 105 80 119 152 5 29 15 275 21 547 7
272 14 498 16 501 2 4 45 -9 95 -28 118 -44 165 -49 269 -28 179 36 274 74
295 116 30 56 7 121 -51 145 -33 14 -43 13 -170 -22 -167 -45 -204 -44 -329
13 -74 34 -105 43 -178 48 -61 5 -91 4 -101 -4 -8 -7 -27 -52 -42 -101 -15
-50 -30 -90 -34 -90 -13 0 -19 100 -8 125 15 34 -4 55 -52 55 -48 0 -67 -21
-52 -55 11 -24 5 -125 -7 -125 -4 0 -17 33 -30 73 -34 110 -42 127 -60 126 -9
0 -56 -15 -105 -32z"></path>
<path d="M1290 1113 c-101 -52 -150 -67 -304 -89 -22 -3 -49 -16 -64 -31 -25
-25 -25 -26 -19 -157 12 -282 107 -495 284 -641 78 -64 190 -125 230 -125 35
0 137 67 223 146 166 154 264 383 277 644 5 112 5 116 -19 138 -18 17 -45 25
-108 33 -108 13 -186 40 -281 95 -42 24 -84 44 -95 43 -10 -1 -66 -26 -124
-56z m223 -142 c70 -33 137 -54 255 -77 21 -4 22 -8 15 -62 -3 -31 -13 -88
-22 -127 l-16 -70 -163 -3 -162 -2 0 190 c0 104 3 190 6 190 3 0 42 -18 87
-39z m-103 -557 l0 -195 -52 28 c-106 57 -218 194 -263 322 l-14 41 164 0 165
0 0 -196z"></path>
<path d="M3474 1006 c-2 -6 -3 -68 -2 -137 l3 -124 88 0 c108 0 121 18 17 25
l-75 5 0 45 0 45 50 3 c78 4 86 16 15 22 l-65 5 0 45 0 45 68 5 c37 3 67 9 67
13 0 14 -160 17 -166 3z"></path>
<path d="M4682 1004 c4 -21 22 -23 26 -1 2 10 -3 17 -13 17 -10 0 -15 -6 -13
-16z"></path>
<path d="M6437 1014 c-4 -4 -4 -18 -1 -31 4 -13 1 -30 -6 -38 -6 -8 -8 -20 -4
-26 4 -7 8 -49 8 -93 l1 -81 38 -3 c41 -4 49 8 15 23 -20 9 -23 19 -26 78 -3
62 -1 69 18 74 26 7 26 19 -1 26 -16 4 -20 12 -17 38 3 30 -10 48 -25 33z"></path>
<path d="M2084 997 c-2 -7 -3 -67 -2 -133 l3 -119 77 -3 c67 -2 80 0 98 18 25
25 26 76 3 102 -14 16 -15 23 -5 38 18 29 15 75 -6 93 -24 22 -160 24 -168 4z
m160 -39 c8 -22 6 -32 -9 -48 -15 -17 -29 -20 -69 -18 -50 3 -51 4 -54 36 -6
57 1 63 65 60 52 -3 58 -5 67 -30z m1 -108 c15 -16 17 -26 9 -48 -9 -26 -13
-27 -74 -27 l-65 0 -3 33 c-5 55 2 62 61 62 41 0 58 -5 72 -20z"></path>
<path d="M2840 960 c0 -51 -8 -61 -30 -35 -7 9 -29 15 -50 15 -83 0 -122 -110
-61 -171 32 -31 86 -40 109 -17 10 10 17 10 32 0 10 -6 20 -8 22 -4 8 18 -4
262 -13 262 -5 0 -9 -22 -9 -50z m-23 -62 c33 -31 32 -90 -3 -117 -35 -27 -59
-26 -89 4 -71 70 19 182 92 113z"></path>
<path d="M4568 1004 c-5 -4 -8 -17 -8 -29 0 -11 -5 -26 -12 -33 -9 -9 -9 -15
0 -24 7 -7 12 -41 12 -84 0 -50 4 -75 14 -84 19 -15 58 -9 64 9 3 10 0 12 -13
7 -32 -12 -45 12 -45 81 0 56 3 66 20 70 25 7 26 19 1 26 -13 3 -21 15 -23 37
-2 17 -6 28 -10 24z"></path>
<path d="M5297 1003 c-11 -10 -8 -251 2 -258 6 -3 11 16 13 42 l3 48 63 5 c51
4 68 10 83 29 27 33 25 86 -6 116 -20 21 -33 25 -88 25 -35 0 -67 -3 -70 -7z
m135 -30 c10 -9 18 -30 18 -49 0 -44 -33 -66 -92 -62 l-43 3 -3 49 c-2 27 -1
55 2 62 8 20 95 18 118 -3z"></path>
<path d="M5886 1003 c-3 -3 -6 -16 -6 -28 0 -11 -5 -26 -12 -33 -9 -9 -9 -15
0 -24 7 -7 12 -41 12 -84 0 -78 11 -98 51 -92 31 4 36 26 7 30 -21 3 -23 9
-26 71 -3 62 -1 69 18 74 26 7 26 19 0 26 -13 3 -20 14 -20 30 0 26 -12 42
-24 30z"></path>
<path d="M2974 940 c-36 -14 -64 -59 -64 -102 0 -51 43 -98 90 -98 34 0 90 25
90 40 0 14 -22 12 -44 -5 -46 -35 -94 -10 -106 55 -7 40 -6 46 21 73 24 23 35
28 57 22 37 -9 56 -30 57 -62 0 -14 6 -28 13 -31 15 -5 16 41 2 69 -11 20 -60
49 -82 48 -7 0 -23 -4 -34 -9z"></path>
<path d="M2348 910 c-28 -28 -30 -36 -25 -78 6 -59 41 -92 95 -92 44 0 89 27
73 43 -7 7 -16 6 -29 -6 -25 -23 -68 -21 -92 3 -40 40 -27 50 60 50 91 0 102
8 76 59 -32 61 -108 71 -158 21z m128 -15 c23 -35 10 -45 -57 -45 -67 0 -84
16 -54 50 27 30 90 27 111 -5z"></path>
<path d="M2610 923 c-17 -12 -25 -13 -28 -5 -2 7 -8 12 -13 12 -12 0 -12 -177
1 -185 6 -4 10 16 10 54 0 74 5 88 41 107 16 8 29 19 29 24 0 14 -12 12 -40
-7z"></path>
<path d="M3150 940 c0 -3 -1 -48 -2 -100 -1 -108 15 -131 20 -28 3 59 6 70 29
88 32 25 69 26 83 1 5 -11 10 -49 10 -85 0 -37 4 -66 10 -66 6 0 10 33 10 78
0 64 -4 82 -18 95 -24 22 -70 22 -94 0 -17 -15 -19 -15 -33 3 -8 10 -15 17
-15 14z"></path>
<path d="M3690 932 c0 -4 13 -23 30 -42 16 -19 29 -39 30 -43 0 -5 -14 -29
-32 -53 -42 -59 -27 -70 20 -15 l38 44 27 -42 c15 -22 32 -41 37 -41 17 0 11
15 -20 56 -16 21 -30 43 -30 47 0 5 14 26 32 48 42 52 26 65 -18 14 l-35 -40
-30 38 c-29 35 -49 47 -49 29z"></path>
<path d="M3917 929 c-29 -17 -49 -68 -42 -106 13 -73 101 -109 156 -64 30 24
19 39 -13 17 -33 -23 -71 -20 -98 9 -32 35 -19 43 70 47 69 3 75 5 78 26 5 36
-48 82 -95 82 -21 0 -46 -5 -56 -11z m108 -29 c30 -34 13 -50 -54 -50 -67 0
-80 10 -57 45 21 32 84 35 111 5z"></path>
<path d="M4128 910 c-28 -28 -30 -36 -25 -78 6 -59 41 -92 95 -92 43 0 89 27
74 42 -7 7 -18 5 -33 -6 -33 -22 -56 -20 -84 9 -68 67 17 182 87 118 13 -12
22 -13 29 -6 17 17 -29 43 -74 43 -30 0 -46 -7 -69 -30z"></path>
<path d="M4326 933 c-11 -11 -6 -137 7 -163 16 -31 67 -39 104 -15 23 15 26
15 37 -1 19 -25 22 -9 18 89 -4 98 -22 120 -22 27 0 -51 -4 -65 -25 -85 -26
-27 -64 -32 -83 -13 -7 7 -12 41 -12 84 0 67 -8 93 -24 77z"></path>
<path d="M4684 927 c-2 -7 -4 -50 -2 -95 4 -112 23 -102 23 11 0 83 -8 117
-21 84z"></path>
<path d="M4750 933 c0 -13 62 -166 73 -181 6 -7 14 -11 19 -10 15 5 87 188 77
194 -9 5 -53 -82 -65 -131 -3 -14 -10 -25 -14 -25 -5 0 -21 35 -38 77 -16 42
-34 79 -40 81 -7 2 -12 0 -12 -5z"></path>
<path d="M4979 911 c-63 -63 -20 -171 68 -171 21 0 49 7 61 16 30 21 17 40
-14 20 -13 -9 -34 -16 -46 -16 -32 0 -68 27 -68 50 0 17 9 20 83 22 81 3 82 3
79 28 -2 14 -15 37 -30 53 -37 39 -93 38 -133 -2z m120 -15 c13 -14 20 -29 16
-35 -7 -13 -131 -15 -139 -2 -3 5 4 20 15 35 27 35 77 36 108 2z"></path>
<path d="M5526 929 c-10 -23 -3 -179 9 -182 6 -1 11 29 13 71 3 70 4 74 32 90
17 9 30 20 30 25 0 13 -27 8 -40 -8 -16 -20 -28 -19 -33 3 -3 15 -5 15 -11 1z"></path>
<path d="M5669 911 c-39 -39 -40 -96 -3 -140 56 -67 164 -22 164 69 0 90 -99
133 -161 71z m96 3 c8 -4 23 -20 31 -36 12 -24 13 -36 4 -64 -19 -58 -73 -72
-115 -29 -61 60 1 159 80 129z"></path>
<path d="M6027 929 c-9 -5 -24 -24 -33 -41 -20 -39 -12 -84 23 -120 33 -34 88
-38 124 -9 30 24 19 39 -13 17 -43 -30 -99 -13 -110 34 -2 12 13 16 77 20 72
4 80 7 83 26 2 12 -9 35 -23 53 -22 26 -34 31 -68 31 -23 0 -50 -5 -60 -11z
m105 -26 c10 -9 18 -24 18 -35 0 -16 -8 -18 -64 -18 -36 0 -68 5 -71 10 -4 6
1 22 9 35 20 30 79 34 108 8z"></path>
<path d="M6236 909 c-57 -68 -15 -169 71 -169 41 0 94 32 74 44 -6 4 -21 0
-33 -8 -34 -24 -63 -19 -92 15 -31 37 -33 67 -5 103 24 30 78 36 99 11 10 -12
16 -13 24 -5 17 18 -22 40 -70 40 -35 0 -47 -5 -68 -31z"></path>
<path d="M6535 915 c-20 -19 -25 -34 -25 -74 0 -43 4 -53 31 -75 67 -56 159
-13 159 74 0 87 -106 135 -165 75z m115 -15 c31 -31 27 -93 -6 -119 -35 -27
-59 -26 -89 4 -31 30 -32 73 -4 109 25 32 70 35 99 6z"></path>
<path d="M6750 939 c-5 -73 -2 -185 5 -187 6 -1 12 27 15 64 4 54 9 69 29 85
30 24 67 24 81 0 5 -11 10 -49 10 -85 0 -37 4 -66 10 -66 13 0 13 146 0 171
-13 24 -81 27 -100 4 -12 -14 -15 -14 -31 1 -11 10 -19 15 -19 13z"></path>
<path d="M2970 840 c0 -5 20 -10 45 -10 25 0 45 5 45 10 0 6 -20 10 -45 10
-25 0 -45 -4 -45 -10z"></path>
</g>
</svg>