 <svg version="1.0" xmlns="http://www.w3.org/2000/svg" width="700.000000pt" height="173.000000pt" viewBox="0 0 700.000000 173.000000" preserveAspectRatio="xMidYMid meet">
<metadata>
Created by potrace 1.12, written by Peter Selinger 2001-2015
</metadata>
<g transform="translate(0.000000,173.000000) scale(0.100000,-0.100000)" fill="#000000" stroke="none">
<path d="M265 1655 c-46 -25 -66 -46 -86 -90 -24 -53 -24 -99 2 -153 30 -62
95 -102 164 -102 97 0 185 86 185 181 -1 50 -33 112 -75 145 -47 35 -142 45
-190 19z"></path>
<path d="M131 1242 c-68 -25 -76 -30 -84 -60 -4 -19 -7 -130 -5 -246 l3 -213
30 -44 30 -44 5 -235 c6 -258 9 -272 70 -324 42 -35 69 -41 175 -41 100 1 135
14 178 65 38 45 47 89 47 245 1 178 18 706 24 712 2 2 50 -10 105 -28 97 -30
105 -31 171 -20 195 32 299 88 286 155 -7 38 -48 76 -82 76 -14 0 -77 -14
-140 -31 -114 -30 -115 -30 -171 -14 -32 9 -78 27 -104 41 -59 29 -199 44
-215 23 -5 -8 -21 -48 -34 -89 -22 -72 -24 -74 -32 -45 -5 17 -6 51 -2 78 l6
47 -47 0 -48 0 6 -42 c3 -24 2 -59 -2 -78 -7 -34 -7 -34 -36 50 -18 52 -36 86
-45 87 -8 1 -49 -10 -89 -25z"></path>
<path d="M2509 1055 c0 -6 0 -34 1 -62 1 -29 -2 -53 -5 -53 -4 0 -18 9 -32 20
-61 48 -143 -4 -143 -90 0 -85 85 -138 148 -94 22 15 24 15 37 -2 17 -23 17
-29 15 136 -1 74 -6 139 -11 145 -6 6 -9 6 -10 0z m-20 -131 c36 -46 27 -105
-20 -129 -39 -21 -56 -19 -84 10 -32 31 -34 96 -5 125 30 30 83 27 109 -6z"></path>
<path d="M4465 1050 c-4 -6 -3 -16 3 -22 6 -6 12 -6 17 2 4 6 3 16 -3 22 -6 6
-12 6 -17 -2z"></path>
<path d="M6455 1050 c-4 -6 -3 -16 3 -22 6 -6 12 -6 17 2 4 6 3 16 -3 22 -6 6
-12 6 -17 -2z"></path>
<path d="M1714 1037 c-2 -7 -3 -71 -2 -143 l3 -129 76 -3 c64 -2 79 0 102 18
33 26 36 75 8 111 -17 22 -17 27 -5 44 20 27 17 72 -6 95 -16 16 -33 20 -95
20 -53 0 -77 -4 -81 -13z m148 -24 c21 -19 24 -66 4 -82 -9 -7 -38 -11 -73 -9
l-58 3 -3 39 c-2 21 -1 44 2 52 8 21 104 19 128 -3z m10 -130 c21 -19 24 -66
4 -82 -9 -7 -40 -11 -78 -9 l-63 3 -3 39 c-2 21 -1 44 2 52 8 21 114 19 138
-3z"></path>
<path d="M3184 1037 c-2 -7 -3 -71 -2 -143 l3 -129 93 0 c113 0 124 18 15 25
l-78 5 0 50 0 50 63 3 c34 2 62 7 62 12 0 5 -28 10 -62 12 l-63 3 0 50 0 50
73 3 c101 4 91 22 -13 22 -61 0 -87 -4 -91 -13z"></path>
<path d="M4336 1043 c-3 -3 -6 -18 -6 -33 0 -14 -5 -31 -12 -38 -9 -9 -9 -15
0 -24 7 -7 12 -42 12 -89 0 -85 10 -103 57 -97 33 4 34 21 1 28 -21 5 -23 12
-26 79 -3 66 -1 73 18 78 26 7 26 19 0 26 -14 4 -20 14 -20 35 0 31 -11 47
-24 35z"></path>
<path d="M5110 903 c0 -91 4 -143 9 -138 6 6 11 30 13 55 l3 45 62 3 c55 3 65
6 88 33 34 41 33 83 -4 120 -27 27 -35 29 -100 29 l-71 0 0 -147z m156 102
c20 -27 17 -72 -7 -96 -16 -16 -30 -19 -72 -17 l-52 3 -3 54 c-5 80 -1 84 65
79 39 -3 60 -10 69 -23z"></path>
<path d="M5736 1043 c-3 -3 -6 -21 -6 -39 0 -18 -6 -35 -12 -38 -10 -5 -10 -7
0 -12 8 -4 12 -31 12 -83 0 -90 12 -114 55 -109 38 4 44 26 8 30 -28 3 -28 4
-31 76 -3 67 -1 74 18 79 26 7 26 19 0 26 -14 4 -20 14 -20 35 0 31 -11 47
-24 35z"></path>
<path d="M6338 1044 c-5 -4 -8 -19 -8 -34 0 -14 -5 -31 -12 -38 -9 -9 -9 -15
0 -24 7 -7 12 -42 12 -89 0 -83 11 -103 51 -97 33 5 35 26 2 30 -28 3 -28 4
-31 76 -3 71 -2 72 25 83 l28 12 -25 6 c-20 5 -26 15 -30 45 -3 21 -8 34 -12
30z"></path>
<path d="M1120 960 c-103 -60 -188 -89 -303 -105 -29 -4 -57 -15 -69 -27 -20
-20 -21 -28 -15 -137 12 -224 69 -364 196 -490 80 -80 189 -151 230 -151 76 0
272 186 339 322 61 122 108 354 88 433 -8 30 -56 55 -110 55 -54 0 -165 38
-237 81 -36 21 -70 39 -75 39 -5 0 -25 -9 -44 -20z m121 -150 c35 -16 96 -37
134 -46 39 -9 76 -19 84 -21 17 -4 10 -114 -11 -178 l-13 -40 -130 0 -130 0
-3 158 c-1 86 -1 157 2 157 2 0 32 -13 67 -30z m-83 -467 c1 -90 -1 -163 -4
-163 -20 0 -110 68 -153 116 -50 55 -111 162 -111 196 0 17 9 18 133 16 l132
-3 3 -162z"></path>
<path d="M2024 970 c-53 -21 -80 -100 -53 -153 29 -56 104 -75 150 -38 30 24
19 39 -13 17 -12 -9 -32 -16 -45 -16 -31 0 -78 42 -70 63 5 14 21 17 86 17 44
0 82 4 86 10 11 18 -23 79 -54 94 -33 18 -55 19 -87 6z m95 -45 c34 -34 19
-45 -60 -45 -60 0 -69 2 -69 18 0 20 24 45 50 55 23 8 52 -2 79 -28z"></path>
<path d="M2215 967 c-10 -24 -1 -202 10 -202 6 0 12 34 15 75 5 74 6 75 43 99
25 17 34 28 27 35 -7 7 -20 3 -40 -12 -23 -17 -30 -19 -30 -8 0 20 -19 30 -25
13z"></path>
<path d="M2634 962 c-118 -75 -18 -251 106 -187 17 9 30 19 30 24 0 19 -14 19
-38 1 -34 -27 -68 -25 -98 5 -39 40 -27 49 67 55 77 5 84 7 87 27 2 13 -8 34
-25 53 -36 40 -86 48 -129 22z m109 -34 c10 -12 16 -26 14 -32 -4 -13 -126
-21 -139 -8 -25 25 38 76 82 66 14 -2 33 -14 43 -26z"></path>
<path d="M2835 969 c-10 -25 -1 -204 10 -204 6 0 12 33 15 73 4 62 9 77 29 93
27 22 64 25 79 6 6 -7 12 -48 14 -90 4 -104 22 -99 26 8 2 74 0 87 -18 105
-24 24 -51 25 -91 4 -29 -14 -32 -14 -44 3 -12 16 -14 16 -20 2z"></path>
<path d="M3407 974 c-3 -4 12 -28 35 -55 l41 -49 -37 -44 c-20 -24 -36 -49
-36 -55 0 -22 19 -10 47 29 15 22 33 40 39 40 6 0 23 -18 38 -40 14 -22 30
-40 34 -40 23 0 17 17 -20 61 l-40 48 41 49 c36 44 42 62 21 62 -4 0 -20 -18
-35 -40 -15 -22 -33 -40 -40 -40 -7 0 -25 18 -40 40 -28 40 -36 46 -48 34z"></path>
<path d="M3665 968 c-38 -20 -55 -51 -55 -101 0 -64 39 -107 97 -107 42 0 83
23 83 46 0 12 -5 11 -26 -5 -15 -12 -38 -21 -51 -21 -28 0 -88 54 -78 70 3 5
44 10 90 10 46 0 86 3 88 8 2 4 0 22 -5 40 -15 56 -92 88 -143 60z m96 -38
c17 -16 28 -34 24 -40 -3 -5 -37 -10 -75 -10 -38 0 -72 5 -75 10 -9 15 50 70
75 70 12 0 35 -13 51 -30z"></path>
<path d="M3894 961 c-90 -55 -49 -201 55 -201 40 0 81 23 81 46 0 19 -7 18
-37 -6 -35 -27 -59 -25 -94 9 -73 73 10 182 95 125 34 -22 42 0 10 25 -33 26
-70 27 -110 2z"></path>
<path d="M4086 973 c-3 -3 -6 -44 -6 -90 0 -70 3 -86 20 -103 26 -26 70 -26
103 0 l26 21 11 -22 c7 -12 15 -17 19 -13 10 13 -3 204 -14 207 -6 1 -12 -32
-15 -76 -4 -67 -8 -82 -29 -98 -57 -47 -91 -12 -91 94 0 70 -8 96 -24 80z"></path>
<path d="M4465 968 c-10 -25 -1 -203 10 -201 13 4 19 193 6 206 -7 7 -12 5
-16 -5z"></path>
<path d="M4536 971 c-8 -12 59 -179 80 -201 19 -19 25 -11 68 99 25 64 34 97
27 104 -7 7 -13 4 -17 -9 -29 -81 -62 -156 -68 -157 -4 -1 -21 34 -38 78 -33
87 -42 102 -52 86z"></path>
<path d="M4794 961 c-90 -56 -49 -201 56 -201 22 0 48 8 61 19 30 24 19 39
-13 17 -42 -30 -91 -19 -114 25 -18 36 -15 38 86 41 68 3 75 5 78 25 2 13 -8
34 -25 53 -36 40 -86 48 -129 21z m109 -29 c9 -8 17 -23 17 -34 0 -16 -9 -18
-69 -18 -39 0 -72 4 -75 8 -8 13 23 52 48 62 25 10 54 4 79 -18z"></path>
<path d="M5355 969 c-10 -25 -1 -204 10 -204 6 0 12 34 15 75 5 74 6 75 43 99
24 16 34 28 28 34 -7 7 -19 4 -36 -7 -25 -17 -27 -17 -40 1 -12 16 -14 16 -20
2z"></path>
<path d="M5535 971 c-35 -15 -57 -49 -62 -95 -5 -42 -3 -48 30 -81 48 -48 95
-49 143 -1 24 24 34 43 34 65 0 82 -75 140 -145 112z m94 -47 c30 -38 28 -89
-5 -119 -34 -32 -68 -32 -99 0 -51 50 -18 145 50 145 24 0 39 -7 54 -26z"></path>
<path d="M5898 965 c-31 -17 -58 -62 -58 -95 0 -29 26 -76 52 -94 44 -31 138
-10 138 30 0 20 -14 18 -35 -6 -25 -28 -70 -26 -101 5 -39 40 -27 49 67 55 77
5 84 7 87 27 2 13 -8 34 -25 53 -34 37 -85 47 -125 25z m105 -32 c9 -9 17 -24
17 -35 0 -16 -9 -18 -69 -18 -84 0 -96 12 -52 52 36 32 69 32 104 1z"></path>
<path d="M6119 952 c-24 -21 -32 -38 -36 -75 -5 -43 -3 -49 30 -82 42 -42 89
-47 131 -14 37 29 22 44 -18 19 -43 -26 -48 -25 -85 6 -24 20 -31 34 -31 63 0
67 75 107 122 64 13 -11 22 -13 29 -6 16 16 -37 53 -77 53 -23 0 -44 -9 -65
-28z"></path>
<path d="M6455 968 c-10 -25 -1 -203 10 -201 13 4 19 193 6 206 -7 7 -12 5
-16 -5z"></path>
<path d="M6594 970 c-34 -13 -64 -59 -64 -97 0 -97 98 -147 169 -87 92 77 5
229 -105 184z m95 -46 c30 -38 27 -80 -8 -115 -36 -35 -64 -37 -96 -4 -52 52
-19 145 51 145 23 0 38 -8 53 -26z"></path>
<path d="M6785 969 c-10 -25 -1 -204 10 -204 6 0 12 33 15 73 4 62 9 77 29 93
27 22 64 25 79 6 6 -7 12 -48 14 -90 4 -104 22 -99 26 8 2 74 0 87 -18 105
-24 24 -51 25 -91 4 -29 -14 -32 -14 -44 3 -12 16 -14 16 -20 2z"></path>
</g>
</svg>